<?xml version="1.0" encoding="UTF-8" standalone="no"?>
<!-- Created with Inkscape (http://www.inkscape.org/) -->

<svg
   xmlns:dc="http://purl.org/dc/elements/1.1/"
   xmlns:cc="http://creativecommons.org/ns#"
   xmlns:rdf="http://www.w3.org/1999/02/22-rdf-syntax-ns#"
   xmlns:svg="http://www.w3.org/2000/svg"
   xmlns="http://www.w3.org/2000/svg"
   xmlns:sodipodi="http://sodipodi.sourceforge.net/DTD/sodipodi-0.dtd"
   xmlns:inkscape="http://www.inkscape.org/namespaces/inkscape"
   width="256"
   height="256"
   viewBox="0 0 256 256"
   id="svg2"
   version="1.1"
   inkscape:version="0.91pre3 r13670"
   sodipodi:docname="drawing.svg"
   inkscape:export-filename="C:\Users\Justin\Desktop\path4688-7.png"
   inkscape:export-xdpi="90"
   inkscape:export-ydpi="90">
  <defs
     id="defs4">
    <inkscape:path-effect
       effect="powerstroke"
       id="path-effect5117"
       is_visible="true"
       offset_points="0.79633756,-5.9206451 | 1.0067606,-9.362899 | 3,-6.2166085 | 2.2294488,-5.0696024"
       sort_points="true"
       interpolator_type="Linear"
       interpolator_beta="0.2"
       start_linecap_type="butt"
       linejoin_type="bevel"
       miter_limit="4"
       end_linecap_type="butt" />
    <inkscape:path-effect
       effect="powerstroke"
       id="path-effect5107"
       is_visible="true"
       offset_points="0.12042402,1.8950628 | 0.7776774,5.4566781 | 1.1315539,5.3393891 | 2,2.5796996"
       sort_points="true"
       interpolator_type="CubicBezierJohan"
       interpolator_beta="0"
       start_linecap_type="round"
       linejoin_type="bevel"
       miter_limit="4"
       end_linecap_type="butt" />
    <clipPath
       clipPathUnits="userSpaceOnUse"
       id="clipPath4328">
      <circle
         r="128"
         cy="924.36218"
         cx="128"
         id="circle4330"
         style="opacity:1;fill:#000000;fill-opacity:1;fill-rule:nonzero;stroke:none;stroke-width:22;stroke-linecap:round;stroke-linejoin:round;stroke-miterlimit:4;stroke-dasharray:none;stroke-dashoffset:8.39999962;stroke-opacity:1" />
    </clipPath>
    <clipPath
       clipPathUnits="userSpaceOnUse"
       id="clipPath4332">
      <circle
         r="128"
         cy="924.36218"
         cx="128"
         id="circle4334"
         style="opacity:1;fill:#000000;fill-opacity:1;fill-rule:nonzero;stroke:none;stroke-width:22;stroke-linecap:round;stroke-linejoin:round;stroke-miterlimit:4;stroke-dasharray:none;stroke-dashoffset:8.39999962;stroke-opacity:1" />
    </clipPath>
    <clipPath
       clipPathUnits="userSpaceOnUse"
       id="clipPath4336">
      <circle
         r="128"
         cy="924.36218"
         cx="128"
         id="circle4338"
         style="opacity:1;fill:#000000;fill-opacity:1;fill-rule:nonzero;stroke:none;stroke-width:22;stroke-linecap:round;stroke-linejoin:round;stroke-miterlimit:4;stroke-dasharray:none;stroke-dashoffset:8.39999962;stroke-opacity:1" />
    </clipPath>
    <clipPath
       clipPathUnits="userSpaceOnUse"
       id="clipPath4340">
      <circle
         r="128"
         cy="924.36218"
         cx="128"
         id="circle4342"
         style="opacity:1;fill:#000000;fill-opacity:1;fill-rule:nonzero;stroke:none;stroke-width:22;stroke-linecap:round;stroke-linejoin:round;stroke-miterlimit:4;stroke-dasharray:none;stroke-dashoffset:8.39999962;stroke-opacity:1" />
    </clipPath>
    <clipPath
       clipPathUnits="userSpaceOnUse"
       id="clipPath4344">
      <circle
         r="128"
         cy="924.36218"
         cx="128"
         id="circle4346"
         style="opacity:1;fill:#000000;fill-opacity:1;fill-rule:nonzero;stroke:none;stroke-width:22;stroke-linecap:round;stroke-linejoin:round;stroke-miterlimit:4;stroke-dasharray:none;stroke-dashoffset:8.39999962;stroke-opacity:1" />
    </clipPath>
    <clipPath
       clipPathUnits="userSpaceOnUse"
       id="clipPath4348">
      <circle
         r="128"
         cy="924.36218"
         cx="128"
         id="circle4350"
         style="opacity:1;fill:#000000;fill-opacity:1;fill-rule:nonzero;stroke:none;stroke-width:22;stroke-linecap:round;stroke-linejoin:round;stroke-miterlimit:4;stroke-dasharray:none;stroke-dashoffset:8.39999962;stroke-opacity:1" />
    </clipPath>
    <clipPath
       clipPathUnits="userSpaceOnUse"
       id="clipPath4352">
      <circle
         r="128"
         cy="924.36218"
         cx="128"
         id="circle4354"
         style="opacity:1;fill:#000000;fill-opacity:1;fill-rule:nonzero;stroke:none;stroke-width:22;stroke-linecap:round;stroke-linejoin:round;stroke-miterlimit:4;stroke-dasharray:none;stroke-dashoffset:8.39999962;stroke-opacity:1" />
    </clipPath>
    <clipPath
       clipPathUnits="userSpaceOnUse"
       id="clipPath4356">
      <circle
         r="128"
         cy="924.36218"
         cx="128"
         id="circle4358"
         style="opacity:1;fill:#000000;fill-opacity:1;fill-rule:nonzero;stroke:none;stroke-width:22;stroke-linecap:round;stroke-linejoin:round;stroke-miterlimit:4;stroke-dasharray:none;stroke-dashoffset:8.39999962;stroke-opacity:1" />
    </clipPath>
    <clipPath
       clipPathUnits="userSpaceOnUse"
       id="clipPath4360">
      <circle
         r="128"
         cy="924.36218"
         cx="128"
         id="circle4362"
         style="opacity:1;fill:#000000;fill-opacity:1;fill-rule:nonzero;stroke:none;stroke-width:22;stroke-linecap:round;stroke-linejoin:round;stroke-miterlimit:4;stroke-dasharray:none;stroke-dashoffset:8.39999962;stroke-opacity:1" />
    </clipPath>
    <clipPath
       clipPathUnits="userSpaceOnUse"
       id="clipPath4364">
      <circle
         r="128"
         cy="924.36218"
         cx="128"
         id="circle4366"
         style="opacity:1;fill:#000000;fill-opacity:1;fill-rule:nonzero;stroke:none;stroke-width:22;stroke-linecap:round;stroke-linejoin:round;stroke-miterlimit:4;stroke-dasharray:none;stroke-dashoffset:8.39999962;stroke-opacity:1" />
    </clipPath>
  </defs>
  <sodipodi:namedview
     id="base"
     pagecolor="#ffffff"
     bordercolor="#666666"
     borderopacity="1.0"
     inkscape:pageopacity="0.0"
     inkscape:pageshadow="2"
     inkscape:zoom="0.96129485"
     inkscape:cx="-35.462373"
     inkscape:cy="18.463195"
     inkscape:document-units="px"
     inkscape:current-layer="layer1"
     showgrid="false"
     units="px"
     inkscape:window-width="1920"
     inkscape:window-height="1017"
     inkscape:window-x="1592"
     inkscape:window-y="-8"
     inkscape:window-maximized="1"
     showguides="false" />
  <metadata
     id="metadata7">
    <rdf:RDF>
      <cc:Work
         rdf:about="">
        <dc:format>image/svg+xml</dc:format>
        <dc:type
           rdf:resource="http://purl.org/dc/dcmitype/StillImage" />
        <dc:title />
      </cc:Work>
    </rdf:RDF>
  </metadata>
  <g
     inkscape:label="Layer 1"
     inkscape:groupmode="layer"
     id="layer1"
     transform="translate(0,-796.36216)">
    <circle
       style="opacity:1;fill:#000000;fill-opacity:1;fill-rule:nonzero;stroke:none;stroke-width:22;stroke-linecap:round;stroke-linejoin:round;stroke-miterlimit:4;stroke-dasharray:none;stroke-dashoffset:8.39999962;stroke-opacity:1"
       id="path4688"
       cx="128"
       cy="924.36218"
       r="128"
       inkscape:export-xdpi="90"
       inkscape:export-ydpi="90" />
    <circle
       style="opacity:1;fill:#ffffff;fill-opacity:1;fill-rule:nonzero;stroke:none;stroke-width:22;stroke-linecap:round;stroke-linejoin:round;stroke-miterlimit:4;stroke-dasharray:none;stroke-dashoffset:8.39999962;stroke-opacity:1"
       id="path4688-7"
       cx="124.5"
       cy="919.86218"
       r="117.5"
       inkscape:export-xdpi="90"
       inkscape:export-ydpi="90" />
    <g
       id="g4995"
       transform="translate(15.714286,-4.2857143)"
       clip-path="none" />
    <path
       style="fill:#000000;fill-rule:nonzero;stroke:#000000;stroke-width:1px;stroke-linecap:butt;stroke-linejoin:miter;stroke-opacity:1"
       d="m 195.89114,827.1675 c 0.30081,1.00759 0.39745,2.08545 0.4273,2.79285 0.0322,0.76242 0.013,1.81001 -0.0235,2.71628 -0.0784,1.9443 -0.28521,4.37957 -0.59261,7.18727 -0.61662,5.63201 -1.67257,13.07098 -3.06732,21.69405 -2.79199,17.26156 -6.9783,39.49209 -11.84202,61.93811 -4.86038,22.43061 -10.42019,45.18338 -15.9696,63.45324 -1.03048,3.39256 -2.06305,6.63868 -3.09314,9.70558 -1.33552,5.31632 -2.69432,10.23142 -4.05061,14.49252 -1.06962,3.3605 -2.20303,6.522 -3.39168,9.2149 -1.1378,2.5778 -2.59182,5.3555 -4.54502,7.5499 -0.648,0.6003 -1.53992,1.2509 -2.6994,1.737 -1.18861,0.4984 -2.50791,0.759 -3.87501,0.719 -1.98062,-0.058 -3.54544,-0.7223 -4.58708,-1.3479 -0.38245,-0.2378 -0.71156,-0.4805 -0.98789,-0.7065 -0.96029,-0.7853 -1.54562,-1.5844 -1.83434,-2.0127 -0.32312,-0.4794 -0.53901,-0.8941 -0.67287,-1.1728 -0.45483,-0.9469 -0.64109,-1.7525 -0.70445,-2.0211 -0.17041,-0.7223 -0.30587,-1.6052 -0.41263,-2.3327 -0.22295,-1.5193 -0.53329,-3.9147 -0.86645,-6.5661 -0.68181,-5.4261 -1.64638,-13.4293 -2.76018,-22.78794 -2.2292,-18.73077 -5.22628,-44.32698 -8.21789,-69.6627 -3.01164,-25.50535 -6.06223,-51.12631 -8.49258,-70.71333 -1.21751,-9.8124 -2.26605,-18.00287 -3.07809,-23.93981 -0.41092,-3.00429 -0.73705,-5.25479 -0.99794,-6.92054 -0.0484,-0.30929 -0.30528,-1.90301 -0.28075,-1.7414 -0.0245,-0.16109 -0.0341,-0.24611 0.004,-0.19101 -0.7464,-1.09356 0.89567,1.40913 0.58413,0.97723 0.36695,0.51397 0.92687,1.11252 1.74565,1.5912 0.84186,0.49215 1.76091,0.74076 2.66348,0.76736 1.66864,0.0492 2.77776,-0.65296 3.1253,-0.89598 0.31237,-0.21842 1.29213,-1.23801 0.65336,-0.6714 -0.31664,0.28086 -1.05469,1.36541 -1.96549,2.95294 -1.53392,2.67361 -3.53896,6.68833 -5.87496,11.76407 -0.42713,1.01 -0.86642,2.05951 -1.317,3.1467 -5.4898,13.24612 -12.605771,31.96342 -19.733941,52.62243 -7.154862,20.73638 -14.211269,43.10652 -19.728822,64.04544 -5.525706,20.96987 -9.329149,39.83707 -9.992235,53.41334 l -12.412258,-0.7216 c 0.98457,-14.82907 5.296732,-34.7344 11.098201,-55.75542 5.812393,-21.06061 13.315322,-43.94136 20.709439,-64.61027 7.42339,-20.75075 14.850358,-39.59121 20.670655,-52.98081 0.47909,-1.10215 0.947591,-2.16805 1.404601,-3.19568 2.14757,-5.25442 4.0447,-9.63733 5.53642,-12.75696 0.85766,-1.79362 1.72874,-3.48793 2.52374,-4.66783 0.32976,-0.48942 1.0234,-1.48545 2.12116,-2.23825 0.54351,-0.37273 1.83199,-1.13729 3.64844,-1.08219 0.97765,0.0297 1.96569,0.29837 2.87029,0.82812 0.88156,0.51626 1.49798,1.16971 1.91517,1.75624 0.51671,0.72094 0.81375,1.44962 0.91552,1.6986 0.15281,0.37386 0.28366,0.74905 0.39368,1.0903 0.22383,0.69431 0.44411,1.5066 0.66811,2.42767 0.4502,1.85119 0.95742,4.3198 1.51863,7.32943 1.12311,6.02305 2.47957,14.31003 3.9893,24.09619 3.01975,19.57422 6.66013,45.19703 10.25052,70.61281 3.59025,25.41483 7.13208,50.63377 9.94805,69.3542 1.4078,9.35896 2.63428,17.09345 3.58578,22.36155 0.47467,2.628 0.88139,4.6406 1.18119,5.8076 0.12394,0.4825 0.29355,1.0239 0.27471,0.79 5.2e-4,0.01 -0.0401,-0.4287 -0.45179,-1.2901 -0.11558,-0.2418 -0.31338,-0.625 -0.61953,-1.0796 -0.27168,-0.4033 -0.84038,-1.1834 -1.78497,-1.9559 -0.27208,-0.2226 -0.59699,-0.4623 -0.97529,-0.6975 -1.03036,-0.6186 -2.58428,-1.2793 -4.55429,-1.3369 -1.35993,-0.04 -2.67217,0.2196 -3.8539,0.7152 -1.1526,0.4833 -2.0378,1.1295 -2.67931,1.724 0.29101,0.2743 1.4816,-0.634 2.75387,-2.148 1.31721,-1.5675 2.78038,-3.7777 4.33783,-6.5523 1.95408,-3.4812 3.99598,-7.73889 6.08285,-12.60291 0.9883,-2.94246 1.98583,-6.07733 2.98805,-9.37686 5.41736,-17.83512 10.89992,-40.24229 15.72704,-62.51939 4.82378,-22.26172 8.9701,-44.28668 11.72537,-61.32119 1.37888,-8.52497 2.40022,-15.74417 2.98574,-21.09209 0.29367,-2.68225 0.46909,-4.81736 0.53188,-6.37535 0.0338,-0.83876 0.0254,-1.28752 0.005,-1.7175 -0.024,-0.49468 -0.0411,-0.3226 0.0769,0.0727 l 11.34642,-3.38748 z"
       id="path5111"
       inkscape:connector-curvature="0"
       inkscape:path-effect="#path-effect5117"
       inkscape:original-d="m 190.21793,828.86124 c 2.9079,9.74003 -27.91099,175.21306 -46.68112,192.18876 -1.67523,1.5151 -25.6289,-200.52252 -28.84319,-205.16537 -3.21428,-4.64286 -58.157365,134.88924 -61.461387,191.71957"
       sodipodi:nodetypes="cssc"
       inkscape:export-xdpi="90"
       inkscape:export-ydpi="90" />
    <path
       style="opacity:0;fill:#000000;fill-opacity:1;fill-rule:nonzero;stroke:#000000;stroke-width:5.05076265;stroke-linecap:butt;stroke-linejoin:miter;stroke-miterlimit:4;stroke-dasharray:none;stroke-dashoffset:8.39999962;stroke-opacity:1"
       d="M 131.82559,294.18206 C 91.426439,289.03272 53.39625,262.27503 35.123616,226.14347 32.875834,221.69879 29.926402,215.10755 28.569322,211.49625 27.212241,207.88496 24.148562,201.96099 21.761145,198.33186 0.63123259,166.21225 -4.9307083,125.94338 6.6733495,89.095122 16.877471,56.69231 42.752655,26.989473 72.916306,13.053008 91.961625,4.2535285 106.98397,0.93931152 127.78498,0.94792832 c 21.26173,0.008809 39.01417,4.02091048 56.56854,12.78465268 16.60523,8.289898 35.16094,23.741291 45.97746,38.285576 6.22952,8.376439 14.88569,24.559175 17.59436,32.892706 0.93665,2.881736 3.50617,8.029351 5.71003,11.439146 20.76596,32.128981 26.81682,67.889361 17.53599,103.637151 -9.89621,38.11806 -38.74939,70.93818 -75.33244,85.68966 -20.61144,8.31121 -42.60719,11.23371 -64.01333,8.50524 z M 20.496421,163.00893 c 0.48021,-1.83632 0.03099,-2.0203 -4.932948,-2.0203 -3.003698,0 -5.461268,0.19011 -5.461268,0.42245 0,2.53044 1.667297,3.61816 5.546098,3.61816 3.470254,0 4.423697,-0.39733 4.848118,-2.02031 z m 3.747919,-25.25381 c 0,-1.87853 -0.673435,-2.02031 -9.596449,-2.02031 -8.9230141,0 -9.5964492,0.14178 -9.5964492,2.02031 0,1.87853 0.6734351,2.0203 9.5964492,2.0203 8.923014,0 9.596449,-0.14177 9.596449,-2.0203 z m 9.091373,-25.25382 c 1.058184,-1.97723 0.768211,-2.0203 -13.601518,-2.0203 -14.0093181,0 -14.6827532,0.0927 -14.6827532,2.0203 0,1.92028 0.6734351,2.02031 13.6015182,2.02031 12.567673,0 13.683703,-0.15357 14.682753,-2.02031 z m 16.462139,-25.790631 1.814925,-2.493638 -20.142134,0 c -20.83302,0 -21.368438,0.103314 -21.368438,4.123228 0,0.531428 8.088551,0.913979 18.94036,0.895791 l 18.940361,-0.03174 1.814926,-2.493637 z M 78.839028,61.163356 c 4.748011,-3.203704 10.025494,-6.401811 11.72774,-7.106904 2.746691,-1.137716 3.912618,-3.192289 10.360342,-18.25679 7.66028,-17.897507 9.82511,-21.283157 13.60868,-21.283157 4.02134,0 5.67292,3.213796 8.00306,15.573128 l 2.21567,11.752162 10.10153,-0.611705 c 5.55583,-0.336437 10.55609,-0.742028 11.11167,-0.90131 2.20024,-0.630794 23.0024,1.499988 29.85094,3.057656 8.29313,1.886231 8.9981,1.512528 9.02447,-4.783852 0.0146,-3.490712 0.27446,-3.781362 4.7411,-5.303301 2.5991,-0.885601 5.13336,-1.610185 5.63167,-1.610185 0.51577,0 0.62238,3.807345 0.2475,8.838835 l -0.65854,8.838835 5.80831,2.474826 c 3.19457,1.361155 9.47349,4.67767 13.95317,7.370035 6.60775,3.971371 8.87775,4.838786 12.02826,4.596242 l 3.8834,-0.298967 -3.36427,-4.413524 c -1.85034,-2.427439 -4.36671,-6.058606 -5.59193,-8.069262 -1.22522,-2.010654 -5.99819,-7.457453 -10.6066,-12.103996 C 178.66302,6.403075 130.38061,-4.7174922 85.873498,10.122098 c -4.161461,1.387516 -7.704765,2.66123 -7.874009,2.830474 -0.169245,0.169244 1.076386,1.691821 2.768067,3.383502 3.35307,3.353071 3.966628,7.241861 1.868971,11.845716 -2.162548,4.746277 -5.318228,5.527613 -22.325046,5.527613 -13.952179,0 -15.728142,0.195776 -17.274295,1.904256 -1.67898,1.855252 -1.36457,1.914633 12.217808,2.307505 11.048146,0.319569 14.485286,0.765833 16.563364,2.15052 2.860434,1.905993 4.953916,5.681517 4.953916,8.934218 0,3.005063 -2.987858,7.593311 -5.770319,8.861086 -1.501339,0.684055 -10.920451,1.096229 -25.051324,1.096229 -21.354959,0 -22.704948,0.111339 -23.691054,1.953897 -0.575132,1.074643 -1.045694,2.211064 -1.045694,2.525381 0,0.314317 8.835517,0.571485 19.634485,0.571485 l 19.634483,0 2.841411,2.943268 c 2.583777,2.676399 3.024592,2.811239 4.861715,1.487145 1.111168,-0.800867 5.905041,-4.077333 10.653051,-7.281037 z m 31.619332,-15.27356 c 2.26711,-0.861956 2.45052,-1.361502 1.94708,-5.303301 -0.86854,-6.800448 -1.1927,-6.727336 -4.21912,0.951591 -2.16654,5.497143 -1.93038,5.949465 2.27204,4.35171 z"
       id="path5140"
       inkscape:connector-curvature="0"
       transform="translate(0,796.36216)" />
    <path
       style="opacity:0;fill:#000000;fill-opacity:1;fill-rule:nonzero;stroke:#000000;stroke-width:5.05076265;stroke-linecap:butt;stroke-linejoin:miter;stroke-miterlimit:4;stroke-dasharray:none;stroke-dashoffset:8.39999962;stroke-opacity:1"
       d="M 131.82559,294.18206 C 91.426439,289.03272 53.39625,262.27503 35.123616,226.14347 32.875834,221.69879 29.926402,215.10755 28.569322,211.49625 27.212241,207.88496 24.148562,201.96099 21.761145,198.33186 0.63123259,166.21225 -4.9307083,125.94338 6.6733495,89.095122 16.877471,56.69231 42.752655,26.989473 72.916306,13.053008 91.961625,4.2535285 106.98397,0.93931152 127.78498,0.94792832 c 21.26173,0.008809 39.01417,4.02091048 56.56854,12.78465268 16.60523,8.289898 35.16094,23.741291 45.97746,38.285576 6.22952,8.376439 14.88569,24.559175 17.59436,32.892706 0.93665,2.881736 3.50617,8.029351 5.71003,11.439146 20.76596,32.128981 26.81682,67.889361 17.53599,103.637151 -9.89621,38.11806 -38.74939,70.93818 -75.33244,85.68966 -20.61144,8.31121 -42.60719,11.23371 -64.01333,8.50524 z M 20.496421,163.00893 c 0.48021,-1.83632 0.03099,-2.0203 -4.932948,-2.0203 -3.003698,0 -5.461268,0.19011 -5.461268,0.42245 0,2.53044 1.667297,3.61816 5.546098,3.61816 3.470254,0 4.423697,-0.39733 4.848118,-2.02031 z m 3.747919,-25.25381 c 0,-1.87853 -0.673435,-2.02031 -9.596449,-2.02031 -8.9230141,0 -9.5964492,0.14178 -9.5964492,2.02031 0,1.87853 0.6734351,2.0203 9.5964492,2.0203 8.923014,0 9.596449,-0.14177 9.596449,-2.0203 z m 9.091373,-25.25382 c 1.058184,-1.97723 0.768211,-2.0203 -13.601518,-2.0203 -14.0093181,0 -14.6827532,0.0927 -14.6827532,2.0203 0,1.92028 0.6734351,2.02031 13.6015182,2.02031 12.567673,0 13.683703,-0.15357 14.682753,-2.02031 z m 16.462139,-25.790631 1.814925,-2.493638 -20.142134,0 c -20.83302,0 -21.368438,0.103314 -21.368438,4.123228 0,0.531428 8.088551,0.913979 18.94036,0.895791 l 18.940361,-0.03174 1.814926,-2.493637 z M 78.839028,61.163356 c 4.748011,-3.203704 10.025494,-6.401811 11.72774,-7.106904 2.746691,-1.137716 3.912618,-3.192289 10.360342,-18.25679 7.66028,-17.897507 9.82511,-21.283157 13.60868,-21.283157 4.02134,0 5.67292,3.213796 8.00306,15.573128 l 2.21567,11.752162 10.10153,-0.611705 c 5.55583,-0.336437 10.55609,-0.742028 11.11167,-0.90131 2.20024,-0.630794 23.0024,1.499988 29.85094,3.057656 8.29313,1.886231 8.9981,1.512528 9.02447,-4.783852 0.0146,-3.490712 0.27446,-3.781362 4.7411,-5.303301 2.5991,-0.885601 5.13336,-1.610185 5.63167,-1.610185 0.51577,0 0.62238,3.807345 0.2475,8.838835 l -0.65854,8.838835 5.80831,2.474826 c 3.19457,1.361155 9.47349,4.67767 13.95317,7.370035 6.60775,3.971371 8.87775,4.838786 12.02826,4.596242 l 3.8834,-0.298967 -3.36427,-4.413524 c -1.85034,-2.427439 -4.36671,-6.058606 -5.59193,-8.069262 -1.22522,-2.010654 -5.99819,-7.457453 -10.6066,-12.103996 C 178.66302,6.403075 130.38061,-4.7174922 85.873498,10.122098 c -4.161461,1.387516 -7.704765,2.66123 -7.874009,2.830474 -0.169245,0.169244 1.076386,1.691821 2.768067,3.383502 3.35307,3.353071 3.966628,7.241861 1.868971,11.845716 -2.162548,4.746277 -5.318228,5.527613 -22.325046,5.527613 -13.952179,0 -15.728142,0.195776 -17.274295,1.904256 -1.67898,1.855252 -1.36457,1.914633 12.217808,2.307505 11.048146,0.319569 14.485286,0.765833 16.563364,2.15052 2.860434,1.905993 4.953916,5.681517 4.953916,8.934218 0,3.005063 -2.987858,7.593311 -5.770319,8.861086 -1.501339,0.684055 -10.920451,1.096229 -25.051324,1.096229 -21.354959,0 -22.704948,0.111339 -23.691054,1.953897 -0.575132,1.074643 -1.045694,2.211064 -1.045694,2.525381 0,0.314317 8.835517,0.571485 19.634485,0.571485 l 19.634483,0 2.841411,2.943268 c 2.583777,2.676399 3.024592,2.811239 4.861715,1.487145 1.111168,-0.800867 5.905041,-4.077333 10.653051,-7.281037 z m 31.619332,-15.27356 c 2.26711,-0.861956 2.45052,-1.361502 1.94708,-5.303301 -0.86854,-6.800448 -1.1927,-6.727336 -4.21912,0.951591 -2.16654,5.497143 -1.93038,5.949465 2.27204,4.35171 z"
       id="path5142"
       inkscape:connector-curvature="0"
       transform="translate(0,796.36216)" />
    <path
       style="opacity:0;fill:#000000;fill-opacity:1;fill-rule:nonzero;stroke:#000000;stroke-width:5.05076265;stroke-linecap:butt;stroke-linejoin:miter;stroke-miterlimit:4;stroke-dasharray:none;stroke-dashoffset:8.39999962;stroke-opacity:1"
       d="M 131.82559,294.18206 C 91.426439,289.03272 53.39625,262.27503 35.123616,226.14347 32.875834,221.69879 29.926402,215.10755 28.569322,211.49625 27.212241,207.88496 24.148562,201.96099 21.761145,198.33186 0.63123259,166.21225 -4.9307083,125.94338 6.6733495,89.095122 16.877471,56.69231 42.752655,26.989473 72.916306,13.053008 91.961625,4.2535285 106.98397,0.93931152 127.78498,0.94792832 c 21.26173,0.008809 39.01417,4.02091048 56.56854,12.78465268 16.60523,8.289898 35.16094,23.741291 45.97746,38.285576 6.22952,8.376439 14.88569,24.559175 17.59436,32.892706 0.93665,2.881736 3.50617,8.029351 5.71003,11.439146 20.76596,32.128981 26.81682,67.889361 17.53599,103.637151 -9.89621,38.11806 -38.74939,70.93818 -75.33244,85.68966 -20.61144,8.31121 -42.60719,11.23371 -64.01333,8.50524 z M 20.496421,163.00893 c 0.48021,-1.83632 0.03099,-2.0203 -4.932948,-2.0203 -3.003698,0 -5.461268,0.19011 -5.461268,0.42245 0,2.53044 1.667297,3.61816 5.546098,3.61816 3.470254,0 4.423697,-0.39733 4.848118,-2.02031 z m 3.747919,-25.25381 c 0,-1.87853 -0.673435,-2.02031 -9.596449,-2.02031 -8.9230141,0 -9.5964492,0.14178 -9.5964492,2.02031 0,1.87853 0.6734351,2.0203 9.5964492,2.0203 8.923014,0 9.596449,-0.14177 9.596449,-2.0203 z m 9.091373,-25.25382 c 1.058184,-1.97723 0.768211,-2.0203 -13.601518,-2.0203 -14.0093181,0 -14.6827532,0.0927 -14.6827532,2.0203 0,1.92028 0.6734351,2.02031 13.6015182,2.02031 12.567673,0 13.683703,-0.15357 14.682753,-2.02031 z m 16.462139,-25.790631 1.814925,-2.493638 -20.142134,0 c -20.83302,0 -21.368438,0.103314 -21.368438,4.123228 0,0.531428 8.088551,0.913979 18.94036,0.895791 l 18.940361,-0.03174 1.814926,-2.493637 z M 78.839028,61.163356 c 4.748011,-3.203704 10.025494,-6.401811 11.72774,-7.106904 2.746691,-1.137716 3.912618,-3.192289 10.360342,-18.25679 7.66028,-17.897507 9.82511,-21.283157 13.60868,-21.283157 4.02134,0 5.67292,3.213796 8.00306,15.573128 l 2.21567,11.752162 10.10153,-0.611705 c 5.55583,-0.336437 10.55609,-0.742028 11.11167,-0.90131 2.20024,-0.630794 23.0024,1.499988 29.85094,3.057656 8.29313,1.886231 8.9981,1.512528 9.02447,-4.783852 0.0146,-3.490712 0.27446,-3.781362 4.7411,-5.303301 2.5991,-0.885601 5.13336,-1.610185 5.63167,-1.610185 0.51577,0 0.62238,3.807345 0.2475,8.838835 l -0.65854,8.838835 5.80831,2.474826 c 3.19457,1.361155 9.47349,4.67767 13.95317,7.370035 6.60775,3.971371 8.87775,4.838786 12.02826,4.596242 l 3.8834,-0.298967 -3.36427,-4.413524 c -1.85034,-2.427439 -4.36671,-6.058606 -5.59193,-8.069262 -1.22522,-2.010654 -5.99819,-7.457453 -10.6066,-12.103996 C 178.66302,6.403075 130.38061,-4.7174922 85.873498,10.122098 c -4.161461,1.387516 -7.704765,2.66123 -7.874009,2.830474 -0.169245,0.169244 1.076386,1.691821 2.768067,3.383502 3.35307,3.353071 3.966628,7.241861 1.868971,11.845716 -2.162548,4.746277 -5.318228,5.527613 -22.325046,5.527613 -13.952179,0 -15.728142,0.195776 -17.274295,1.904256 -1.67898,1.855252 -1.36457,1.914633 12.217808,2.307505 11.048146,0.319569 14.485286,0.765833 16.563364,2.15052 2.860434,1.905993 4.953916,5.681517 4.953916,8.934218 0,3.005063 -2.987858,7.593311 -5.770319,8.861086 -1.501339,0.684055 -10.920451,1.096229 -25.051324,1.096229 -21.354959,0 -22.704948,0.111339 -23.691054,1.953897 -0.575132,1.074643 -1.045694,2.211064 -1.045694,2.525381 0,0.314317 8.835517,0.571485 19.634485,0.571485 l 19.634483,0 2.841411,2.943268 c 2.583777,2.676399 3.024592,2.811239 4.861715,1.487145 1.111168,-0.800867 5.905041,-4.077333 10.653051,-7.281037 z m 31.619332,-15.27356 c 2.26711,-0.861956 2.45052,-1.361502 1.94708,-5.303301 -0.86854,-6.800448 -1.1927,-6.727336 -4.21912,0.951591 -2.16654,5.497143 -1.93038,5.949465 2.27204,4.35171 z"
       id="path5144"
       inkscape:connector-curvature="0"
       transform="translate(0,796.36216)" />
    <path
       style="opacity:0;fill:#000000;fill-opacity:1;fill-rule:nonzero;stroke:#000000;stroke-width:5.05076265;stroke-linecap:butt;stroke-linejoin:miter;stroke-miterlimit:4;stroke-dasharray:none;stroke-dashoffset:8.39999962;stroke-opacity:1"
       d="M 131.82559,294.18206 C 91.426439,289.03272 53.39625,262.27503 35.123616,226.14347 32.875834,221.69879 29.926402,215.10755 28.569322,211.49625 27.212241,207.88496 24.148562,201.96099 21.761145,198.33186 0.63123259,166.21225 -4.9307083,125.94338 6.6733495,89.095122 16.877471,56.69231 42.752655,26.989473 72.916306,13.053008 91.961625,4.2535285 106.98397,0.93931152 127.78498,0.94792832 c 21.26173,0.008809 39.01417,4.02091048 56.56854,12.78465268 16.60523,8.289898 35.16094,23.741291 45.97746,38.285576 6.22952,8.376439 14.88569,24.559175 17.59436,32.892706 0.93665,2.881736 3.50617,8.029351 5.71003,11.439146 20.76596,32.128981 26.81682,67.889361 17.53599,103.637151 -9.89621,38.11806 -38.74939,70.93818 -75.33244,85.68966 -20.61144,8.31121 -42.60719,11.23371 -64.01333,8.50524 z M 20.496421,163.00893 c 0.48021,-1.83632 0.03099,-2.0203 -4.932948,-2.0203 -3.003698,0 -5.461268,0.19011 -5.461268,0.42245 0,2.53044 1.667297,3.61816 5.546098,3.61816 3.470254,0 4.423697,-0.39733 4.848118,-2.02031 z m 3.747919,-25.25381 c 0,-1.87853 -0.673435,-2.02031 -9.596449,-2.02031 -8.9230141,0 -9.5964492,0.14178 -9.5964492,2.02031 0,1.87853 0.6734351,2.0203 9.5964492,2.0203 8.923014,0 9.596449,-0.14177 9.596449,-2.0203 z m 9.091373,-25.25382 c 1.058184,-1.97723 0.768211,-2.0203 -13.601518,-2.0203 -14.0093181,0 -14.6827532,0.0927 -14.6827532,2.0203 0,1.92028 0.6734351,2.02031 13.6015182,2.02031 12.567673,0 13.683703,-0.15357 14.682753,-2.02031 z m 16.462139,-25.790631 1.814925,-2.493638 -20.142134,0 c -20.83302,0 -21.368438,0.103314 -21.368438,4.123228 0,0.531428 8.088551,0.913979 18.94036,0.895791 l 18.940361,-0.03174 1.814926,-2.493637 z M 78.839028,61.163356 c 4.748011,-3.203704 10.025494,-6.401811 11.72774,-7.106904 2.746691,-1.137716 3.912618,-3.192289 10.360342,-18.25679 7.66028,-17.897507 9.82511,-21.283157 13.60868,-21.283157 4.02134,0 5.67292,3.213796 8.00306,15.573128 l 2.21567,11.752162 10.10153,-0.611705 c 5.55583,-0.336437 10.55609,-0.742028 11.11167,-0.90131 2.20024,-0.630794 23.0024,1.499988 29.85094,3.057656 8.29313,1.886231 8.9981,1.512528 9.02447,-4.783852 0.0146,-3.490712 0.27446,-3.781362 4.7411,-5.303301 2.5991,-0.885601 5.13336,-1.610185 5.63167,-1.610185 0.51577,0 0.62238,3.807345 0.2475,8.838835 l -0.65854,8.838835 5.80831,2.474826 c 3.19457,1.361155 9.47349,4.67767 13.95317,7.370035 6.60775,3.971371 8.87775,4.838786 12.02826,4.596242 l 3.8834,-0.298967 -3.36427,-4.413524 c -1.85034,-2.427439 -4.36671,-6.058606 -5.59193,-8.069262 -1.22522,-2.010654 -5.99819,-7.457453 -10.6066,-12.103996 C 178.66302,6.403075 130.38061,-4.7174922 85.873498,10.122098 c -4.161461,1.387516 -7.704765,2.66123 -7.874009,2.830474 -0.169245,0.169244 1.076386,1.691821 2.768067,3.383502 3.35307,3.353071 3.966628,7.241861 1.868971,11.845716 -2.162548,4.746277 -5.318228,5.527613 -22.325046,5.527613 -13.952179,0 -15.728142,0.195776 -17.274295,1.904256 -1.67898,1.855252 -1.36457,1.914633 12.217808,2.307505 11.048146,0.319569 14.485286,0.765833 16.563364,2.15052 2.860434,1.905993 4.953916,5.681517 4.953916,8.934218 0,3.005063 -2.987858,7.593311 -5.770319,8.861086 -1.501339,0.684055 -10.920451,1.096229 -25.051324,1.096229 -21.354959,0 -22.704948,0.111339 -23.691054,1.953897 -0.575132,1.074643 -1.045694,2.211064 -1.045694,2.525381 0,0.314317 8.835517,0.571485 19.634485,0.571485 l 19.634483,0 2.841411,2.943268 c 2.583777,2.676399 3.024592,2.811239 4.861715,1.487145 1.111168,-0.800867 5.905041,-4.077333 10.653051,-7.281037 z m 31.619332,-15.27356 c 2.26711,-0.861956 2.45052,-1.361502 1.94708,-5.303301 -0.86854,-6.800448 -1.1927,-6.727336 -4.21912,0.951591 -2.16654,5.497143 -1.93038,5.949465 2.27204,4.35171 z"
       id="path5146"
       inkscape:connector-curvature="0"
       transform="translate(0,796.36216)" />
    <path
       style="opacity:0;fill:#000000;fill-opacity:1;fill-rule:nonzero;stroke:#000000;stroke-width:5.05076265;stroke-linecap:butt;stroke-linejoin:miter;stroke-miterlimit:4;stroke-dasharray:none;stroke-dashoffset:8.39999962;stroke-opacity:1"
       d="M 131.82559,294.18206 C 91.426439,289.03272 53.39625,262.27503 35.123616,226.14347 32.875834,221.69879 29.926402,215.10755 28.569322,211.49625 27.212241,207.88496 24.148562,201.96099 21.761145,198.33186 0.63123259,166.21225 -4.9307083,125.94338 6.6733495,89.095122 16.877471,56.69231 42.752655,26.989473 72.916306,13.053008 91.961625,4.2535285 106.98397,0.93931152 127.78498,0.94792832 c 21.26173,0.008809 39.01417,4.02091048 56.56854,12.78465268 16.60523,8.289898 35.16094,23.741291 45.97746,38.285576 6.22952,8.376439 14.88569,24.559175 17.59436,32.892706 0.93665,2.881736 3.50617,8.029351 5.71003,11.439146 20.76596,32.128981 26.81682,67.889361 17.53599,103.637151 -9.89621,38.11806 -38.74939,70.93818 -75.33244,85.68966 -20.61144,8.31121 -42.60719,11.23371 -64.01333,8.50524 z M 20.496421,163.00893 c 0.48021,-1.83632 0.03099,-2.0203 -4.932948,-2.0203 -3.003698,0 -5.461268,0.19011 -5.461268,0.42245 0,2.53044 1.667297,3.61816 5.546098,3.61816 3.470254,0 4.423697,-0.39733 4.848118,-2.02031 z m 3.747919,-25.25381 c 0,-1.87853 -0.673435,-2.02031 -9.596449,-2.02031 -8.9230141,0 -9.5964492,0.14178 -9.5964492,2.02031 0,1.87853 0.6734351,2.0203 9.5964492,2.0203 8.923014,0 9.596449,-0.14177 9.596449,-2.0203 z m 9.091373,-25.25382 c 1.058184,-1.97723 0.768211,-2.0203 -13.601518,-2.0203 -14.0093181,0 -14.6827532,0.0927 -14.6827532,2.0203 0,1.92028 0.6734351,2.02031 13.6015182,2.02031 12.567673,0 13.683703,-0.15357 14.682753,-2.02031 z m 16.462139,-25.790631 1.814925,-2.493638 -20.142134,0 c -20.83302,0 -21.368438,0.103314 -21.368438,4.123228 0,0.531428 8.088551,0.913979 18.94036,0.895791 l 18.940361,-0.03174 1.814926,-2.493637 z M 78.839028,61.163356 c 4.748011,-3.203704 10.025494,-6.401811 11.72774,-7.106904 2.746691,-1.137716 3.912618,-3.192289 10.360342,-18.25679 7.66028,-17.897507 9.82511,-21.283157 13.60868,-21.283157 4.02134,0 5.67292,3.213796 8.00306,15.573128 l 2.21567,11.752162 10.10153,-0.611705 c 5.55583,-0.336437 10.55609,-0.742028 11.11167,-0.90131 2.20024,-0.630794 23.0024,1.499988 29.85094,3.057656 8.29313,1.886231 8.9981,1.512528 9.02447,-4.783852 0.0146,-3.490712 0.27446,-3.781362 4.7411,-5.303301 2.5991,-0.885601 5.13336,-1.610185 5.63167,-1.610185 0.51577,0 0.62238,3.807345 0.2475,8.838835 l -0.65854,8.838835 5.80831,2.474826 c 3.19457,1.361155 9.47349,4.67767 13.95317,7.370035 6.60775,3.971371 8.87775,4.838786 12.02826,4.596242 l 3.8834,-0.298967 -3.36427,-4.413524 c -1.85034,-2.427439 -4.36671,-6.058606 -5.59193,-8.069262 -1.22522,-2.010654 -5.99819,-7.457453 -10.6066,-12.103996 C 178.66302,6.403075 130.38061,-4.7174922 85.873498,10.122098 c -4.161461,1.387516 -7.704765,2.66123 -7.874009,2.830474 -0.169245,0.169244 1.076386,1.691821 2.768067,3.383502 3.35307,3.353071 3.966628,7.241861 1.868971,11.845716 -2.162548,4.746277 -5.318228,5.527613 -22.325046,5.527613 -13.952179,0 -15.728142,0.195776 -17.274295,1.904256 -1.67898,1.855252 -1.36457,1.914633 12.217808,2.307505 11.048146,0.319569 14.485286,0.765833 16.563364,2.15052 2.860434,1.905993 4.953916,5.681517 4.953916,8.934218 0,3.005063 -2.987858,7.593311 -5.770319,8.861086 -1.501339,0.684055 -10.920451,1.096229 -25.051324,1.096229 -21.354959,0 -22.704948,0.111339 -23.691054,1.953897 -0.575132,1.074643 -1.045694,2.211064 -1.045694,2.525381 0,0.314317 8.835517,0.571485 19.634485,0.571485 l 19.634483,0 2.841411,2.943268 c 2.583777,2.676399 3.024592,2.811239 4.861715,1.487145 1.111168,-0.800867 5.905041,-4.077333 10.653051,-7.281037 z m 31.619332,-15.27356 c 2.26711,-0.861956 2.45052,-1.361502 1.94708,-5.303301 -0.86854,-6.800448 -1.1927,-6.727336 -4.21912,0.951591 -2.16654,5.497143 -1.93038,5.949465 2.27204,4.35171 z"
       id="path5148"
       inkscape:connector-curvature="0"
       transform="translate(0,796.36216)" />
    <path
       style="opacity:0;fill:#000000;fill-opacity:1;fill-rule:nonzero;stroke:#000000;stroke-width:5.05076265;stroke-linecap:butt;stroke-linejoin:miter;stroke-miterlimit:4;stroke-dasharray:none;stroke-dashoffset:8.39999962;stroke-opacity:1"
       d="M 131.82559,294.18206 C 91.426439,289.03272 53.39625,262.27503 35.123616,226.14347 32.875834,221.69879 29.926402,215.10755 28.569322,211.49625 27.212241,207.88496 24.148562,201.96099 21.761145,198.33186 0.63123259,166.21225 -4.9307083,125.94338 6.6733495,89.095122 16.877471,56.69231 42.752655,26.989473 72.916306,13.053008 91.961625,4.2535285 106.98397,0.93931152 127.78498,0.94792832 c 21.26173,0.008809 39.01417,4.02091048 56.56854,12.78465268 16.60523,8.289898 35.16094,23.741291 45.97746,38.285576 6.22952,8.376439 14.88569,24.559175 17.59436,32.892706 0.93665,2.881736 3.50617,8.029351 5.71003,11.439146 20.76596,32.128981 26.81682,67.889361 17.53599,103.637151 -9.89621,38.11806 -38.74939,70.93818 -75.33244,85.68966 -20.61144,8.31121 -42.60719,11.23371 -64.01333,8.50524 z M 20.496421,163.00893 c 0.48021,-1.83632 0.03099,-2.0203 -4.932948,-2.0203 -3.003698,0 -5.461268,0.19011 -5.461268,0.42245 0,2.53044 1.667297,3.61816 5.546098,3.61816 3.470254,0 4.423697,-0.39733 4.848118,-2.02031 z m 3.747919,-25.25381 c 0,-1.87853 -0.673435,-2.02031 -9.596449,-2.02031 -8.9230141,0 -9.5964492,0.14178 -9.5964492,2.02031 0,1.87853 0.6734351,2.0203 9.5964492,2.0203 8.923014,0 9.596449,-0.14177 9.596449,-2.0203 z m 9.091373,-25.25382 c 1.058184,-1.97723 0.768211,-2.0203 -13.601518,-2.0203 -14.0093181,0 -14.6827532,0.0927 -14.6827532,2.0203 0,1.92028 0.6734351,2.02031 13.6015182,2.02031 12.567673,0 13.683703,-0.15357 14.682753,-2.02031 z m 16.462139,-25.790631 1.814925,-2.493638 -20.142134,0 c -20.83302,0 -21.368438,0.103314 -21.368438,4.123228 0,0.531428 8.088551,0.913979 18.94036,0.895791 l 18.940361,-0.03174 1.814926,-2.493637 z M 78.839028,61.163356 c 4.748011,-3.203704 10.025494,-6.401811 11.72774,-7.106904 2.746691,-1.137716 3.912618,-3.192289 10.360342,-18.25679 7.66028,-17.897507 9.82511,-21.283157 13.60868,-21.283157 4.02134,0 5.67292,3.213796 8.00306,15.573128 l 2.21567,11.752162 10.10153,-0.611705 c 5.55583,-0.336437 10.55609,-0.742028 11.11167,-0.90131 2.20024,-0.630794 23.0024,1.499988 29.85094,3.057656 8.29313,1.886231 8.9981,1.512528 9.02447,-4.783852 0.0146,-3.490712 0.27446,-3.781362 4.7411,-5.303301 2.5991,-0.885601 5.13336,-1.610185 5.63167,-1.610185 0.51577,0 0.62238,3.807345 0.2475,8.838835 l -0.65854,8.838835 5.80831,2.474826 c 3.19457,1.361155 9.47349,4.67767 13.95317,7.370035 6.60775,3.971371 8.87775,4.838786 12.02826,4.596242 l 3.8834,-0.298967 -3.36427,-4.413524 c -1.85034,-2.427439 -4.36671,-6.058606 -5.59193,-8.069262 -1.22522,-2.010654 -5.99819,-7.457453 -10.6066,-12.103996 C 178.66302,6.403075 130.38061,-4.7174922 85.873498,10.122098 c -4.161461,1.387516 -7.704765,2.66123 -7.874009,2.830474 -0.169245,0.169244 1.076386,1.691821 2.768067,3.383502 3.35307,3.353071 3.966628,7.241861 1.868971,11.845716 -2.162548,4.746277 -5.318228,5.527613 -22.325046,5.527613 -13.952179,0 -15.728142,0.195776 -17.274295,1.904256 -1.67898,1.855252 -1.36457,1.914633 12.217808,2.307505 11.048146,0.319569 14.485286,0.765833 16.563364,2.15052 2.860434,1.905993 4.953916,5.681517 4.953916,8.934218 0,3.005063 -2.987858,7.593311 -5.770319,8.861086 -1.501339,0.684055 -10.920451,1.096229 -25.051324,1.096229 -21.354959,0 -22.704948,0.111339 -23.691054,1.953897 -0.575132,1.074643 -1.045694,2.211064 -1.045694,2.525381 0,0.314317 8.835517,0.571485 19.634485,0.571485 l 19.634483,0 2.841411,2.943268 c 2.583777,2.676399 3.024592,2.811239 4.861715,1.487145 1.111168,-0.800867 5.905041,-4.077333 10.653051,-7.281037 z m 31.619332,-15.27356 c 2.26711,-0.861956 2.45052,-1.361502 1.94708,-5.303301 -0.86854,-6.800448 -1.1927,-6.727336 -4.21912,0.951591 -2.16654,5.497143 -1.93038,5.949465 2.27204,4.35171 z"
       id="path5150"
       inkscape:connector-curvature="0"
       transform="translate(0,796.36216)" />
    <path
       style="opacity:0;fill:#000000;fill-opacity:1;fill-rule:nonzero;stroke:#000000;stroke-width:5.05076265;stroke-linecap:butt;stroke-linejoin:miter;stroke-miterlimit:4;stroke-dasharray:none;stroke-dashoffset:8.39999962;stroke-opacity:1"
       d="M 131.82559,294.18206 C 91.426439,289.03272 53.39625,262.27503 35.123616,226.14347 32.875834,221.69879 29.926402,215.10755 28.569322,211.49625 27.212241,207.88496 24.148562,201.96099 21.761145,198.33186 0.63123259,166.21225 -4.9307083,125.94338 6.6733495,89.095122 16.877471,56.69231 42.752655,26.989473 72.916306,13.053008 91.961625,4.2535285 106.98397,0.93931152 127.78498,0.94792832 c 21.26173,0.008809 39.01417,4.02091048 56.56854,12.78465268 16.60523,8.289898 35.16094,23.741291 45.97746,38.285576 6.22952,8.376439 14.88569,24.559175 17.59436,32.892706 0.93665,2.881736 3.50617,8.029351 5.71003,11.439146 20.76596,32.128981 26.81682,67.889361 17.53599,103.637151 -9.89621,38.11806 -38.74939,70.93818 -75.33244,85.68966 -20.61144,8.31121 -42.60719,11.23371 -64.01333,8.50524 z M 20.496421,163.00893 c 0.48021,-1.83632 0.03099,-2.0203 -4.932948,-2.0203 -3.003698,0 -5.461268,0.19011 -5.461268,0.42245 0,2.53044 1.667297,3.61816 5.546098,3.61816 3.470254,0 4.423697,-0.39733 4.848118,-2.02031 z m 3.747919,-25.25381 c 0,-1.87853 -0.673435,-2.02031 -9.596449,-2.02031 -8.9230141,0 -9.5964492,0.14178 -9.5964492,2.02031 0,1.87853 0.6734351,2.0203 9.5964492,2.0203 8.923014,0 9.596449,-0.14177 9.596449,-2.0203 z m 9.091373,-25.25382 c 1.058184,-1.97723 0.768211,-2.0203 -13.601518,-2.0203 -14.0093181,0 -14.6827532,0.0927 -14.6827532,2.0203 0,1.92028 0.6734351,2.02031 13.6015182,2.02031 12.567673,0 13.683703,-0.15357 14.682753,-2.02031 z m 16.462139,-25.790631 1.814925,-2.493638 -20.142134,0 c -20.83302,0 -21.368438,0.103314 -21.368438,4.123228 0,0.531428 8.088551,0.913979 18.94036,0.895791 l 18.940361,-0.03174 1.814926,-2.493637 z M 78.839028,61.163356 c 4.748011,-3.203704 10.025494,-6.401811 11.72774,-7.106904 2.746691,-1.137716 3.912618,-3.192289 10.360342,-18.25679 7.66028,-17.897507 9.82511,-21.283157 13.60868,-21.283157 4.02134,0 5.67292,3.213796 8.00306,15.573128 l 2.21567,11.752162 10.10153,-0.611705 c 5.55583,-0.336437 10.55609,-0.742028 11.11167,-0.90131 2.20024,-0.630794 23.0024,1.499988 29.85094,3.057656 8.29313,1.886231 8.9981,1.512528 9.02447,-4.783852 0.0146,-3.490712 0.27446,-3.781362 4.7411,-5.303301 2.5991,-0.885601 5.13336,-1.610185 5.63167,-1.610185 0.51577,0 0.62238,3.807345 0.2475,8.838835 l -0.65854,8.838835 5.80831,2.474826 c 3.19457,1.361155 9.47349,4.67767 13.95317,7.370035 6.60775,3.971371 8.87775,4.838786 12.02826,4.596242 l 3.8834,-0.298967 -3.36427,-4.413524 c -1.85034,-2.427439 -4.36671,-6.058606 -5.59193,-8.069262 -1.22522,-2.010654 -5.99819,-7.457453 -10.6066,-12.103996 C 178.66302,6.403075 130.38061,-4.7174922 85.873498,10.122098 c -4.161461,1.387516 -7.704765,2.66123 -7.874009,2.830474 -0.169245,0.169244 1.076386,1.691821 2.768067,3.383502 3.35307,3.353071 3.966628,7.241861 1.868971,11.845716 -2.162548,4.746277 -5.318228,5.527613 -22.325046,5.527613 -13.952179,0 -15.728142,0.195776 -17.274295,1.904256 -1.67898,1.855252 -1.36457,1.914633 12.217808,2.307505 11.048146,0.319569 14.485286,0.765833 16.563364,2.15052 2.860434,1.905993 4.953916,5.681517 4.953916,8.934218 0,3.005063 -2.987858,7.593311 -5.770319,8.861086 -1.501339,0.684055 -10.920451,1.096229 -25.051324,1.096229 -21.354959,0 -22.704948,0.111339 -23.691054,1.953897 -0.575132,1.074643 -1.045694,2.211064 -1.045694,2.525381 0,0.314317 8.835517,0.571485 19.634485,0.571485 l 19.634483,0 2.841411,2.943268 c 2.583777,2.676399 3.024592,2.811239 4.861715,1.487145 1.111168,-0.800867 5.905041,-4.077333 10.653051,-7.281037 z m 31.619332,-15.27356 c 2.26711,-0.861956 2.45052,-1.361502 1.94708,-5.303301 -0.86854,-6.800448 -1.1927,-6.727336 -4.21912,0.951591 -2.16654,5.497143 -1.93038,5.949465 2.27204,4.35171 z"
       id="path5152"
       inkscape:connector-curvature="0"
       transform="translate(0,796.36216)" />
    <path
       style="fill:none;fill-rule:evenodd;stroke:#000000;stroke-width:32;stroke-linecap:butt;stroke-linejoin:miter;stroke-miterlimit:4;stroke-dasharray:none;stroke-opacity:1"
       d="m 0,1020.3622 42.99275,0"
       id="path4224"
       inkscape:connector-curvature="0"
       sodipodi:nodetypes="cc"
       clip-path="url(#clipPath4364)"
       inkscape:export-xdpi="90"
       inkscape:export-ydpi="90" />
    <path
       style="fill:none;fill-rule:evenodd;stroke:#000000;stroke-width:32;stroke-linecap:butt;stroke-linejoin:miter;stroke-miterlimit:4;stroke-dasharray:none;stroke-opacity:1"
       d="m 0,972.36216 44.096116,0"
       id="path4224-2"
       inkscape:connector-curvature="0"
       sodipodi:nodetypes="cc"
       clip-path="url(#clipPath4360)"
       transform="scale(0.99782031,1)"
       inkscape:export-xdpi="90"
       inkscape:export-ydpi="90" />
    <path
       style="fill:none;fill-rule:evenodd;stroke:#000000;stroke-width:32;stroke-linecap:butt;stroke-linejoin:miter;stroke-miterlimit:4;stroke-dasharray:none;stroke-opacity:1"
       d="m 0,924.36216 57.33651,0"
       id="path4224-2-9"
       inkscape:connector-curvature="0"
       sodipodi:nodetypes="cc"
       clip-path="url(#clipPath4356)"
       transform="scale(0.99413096,1)"
       inkscape:export-xdpi="90"
       inkscape:export-ydpi="90" />
    <path
       style="fill:none;fill-rule:evenodd;stroke:#000000;stroke-width:32;stroke-linecap:butt;stroke-linejoin:miter;stroke-miterlimit:4;stroke-dasharray:none;stroke-opacity:1"
       d="M 1.8858957e-7,876.36216 71.312481,876.36216"
       id="path4224-2-9-4"
       inkscape:connector-curvature="0"
       sodipodi:nodetypes="cc"
       clip-path="url(#clipPath4352)"
       transform="scale(0.99561815,1)"
       inkscape:export-xdpi="90"
       inkscape:export-ydpi="90" />
    <path
       style="fill:none;fill-rule:evenodd;stroke:#000000;stroke-width:32;stroke-linecap:butt;stroke-linejoin:miter;stroke-miterlimit:4;stroke-dasharray:none;stroke-opacity:1"
       d="m 0,828.36216 91.173071,0"
       id="path4224-2-9-4-3"
       inkscape:connector-curvature="0"
       sodipodi:nodetypes="cc"
       clip-path="url(#clipPath4348)"
       transform="scale(0.99810173,1)"
       inkscape:export-xdpi="90"
       inkscape:export-ydpi="90" />
    <path
       style="fill:none;fill-rule:evenodd;stroke:#000000;stroke-width:32;stroke-linecap:butt;stroke-linejoin:miter;stroke-miterlimit:4;stroke-dasharray:none;stroke-opacity:1"
       d="m 165.10231,1020.3622 90.89769,0"
       id="path4224-9"
       inkscape:connector-curvature="0"
       sodipodi:nodetypes="cc"
       clip-path="url(#clipPath4344)"
       transform="matrix(0.99012417,0,0,1,1.6305221,0)"
       inkscape:export-xdpi="90"
       inkscape:export-ydpi="90" />
    <path
       style="fill:none;fill-rule:evenodd;stroke:#000000;stroke-width:32;stroke-linecap:butt;stroke-linejoin:miter;stroke-miterlimit:4;stroke-dasharray:none;stroke-opacity:1"
       d="m 178.8858,972.36216 77.1142,0"
       id="path4224-2-8"
       inkscape:connector-curvature="0"
       sodipodi:nodetypes="cc"
       clip-path="url(#clipPath4340)"
       transform="matrix(0.99851908,0,0,1,0.26491565,0)"
       inkscape:export-xdpi="90"
       inkscape:export-ydpi="90" />
    <path
       style="fill:none;fill-rule:evenodd;stroke:#000000;stroke-width:32;stroke-linecap:butt;stroke-linejoin:miter;stroke-miterlimit:4;stroke-dasharray:none;stroke-opacity:1"
       d="m 190.84883,924.36216 65.15117,0"
       id="path4224-2-9-6"
       inkscape:connector-curvature="0"
       sodipodi:nodetypes="cc"
       clip-path="url(#clipPath4336)"
       transform="matrix(0.9976797,0,0,1,0.44282578,0)"
       inkscape:export-xdpi="90"
       inkscape:export-ydpi="90" />
    <path
       style="fill:none;fill-rule:evenodd;stroke:#000000;stroke-width:32;stroke-linecap:butt;stroke-linejoin:miter;stroke-miterlimit:4;stroke-dasharray:none;stroke-opacity:1"
       d="m 199.17094,876.36216 56.82906,0"
       id="path4224-2-9-4-6"
       inkscape:connector-curvature="0"
       sodipodi:nodetypes="cc"
       clip-path="url(#clipPath4332)"
       transform="matrix(0.98541134,0,0,1,2.9056377,0)"
       inkscape:export-xdpi="90"
       inkscape:export-ydpi="90" />
    <path
       style="fill:none;fill-rule:evenodd;stroke:#000000;stroke-width:32;stroke-linecap:butt;stroke-linejoin:miter;stroke-miterlimit:4;stroke-dasharray:none;stroke-opacity:1"
       d="m 202.08131,828.36214 53.91869,0"
       id="path4224-2-9-4-3-5"
       inkscape:connector-curvature="0"
       sodipodi:nodetypes="cc"
       clip-path="url(#clipPath4328)"
       transform="matrix(1.001508,0,0,1,-0.30474092,0)"
       inkscape:export-xdpi="90"
       inkscape:export-ydpi="90" />
  </g>
</svg>
